# xmcd
#
# Track frame offsets:
#	150
#	19560
#	39307
#	54317
#	73715
#	90375
#	104142
#	118490
#	135810
#	148717
#	166772
#	180925
#	194930
#	211412
#	226305
#	243782
#	257157
#	275370
#	289902
#
# Disc length: 4035 seconds
#
# Revision: 1
# Processed by: cddbd v1.5.1PL2 Copyright (c) Steve Scherf et al.
# Submitted via: dBpowerAMP V4.0
#
DISCID=110fc113
DTITLE=Kenny Rogers - The Complete Collection Cd2
DYEAR=1998
DGENRE=Country
TTITLE0=Something's Burning
TTITLE1=Through The Years
TTITLE2=Just Dropped in (to See What Condition my Condition Was In)
TTITLE3=Long Arm of The Law
TTITLE4=San Francisco Mabel Joy
TTITLE5=All I Ever Need is You (With Dottie West)
TTITLE6=Daytime Friends
TTITLE7=We've Got Tonight (With Sheena Easton)
TTITLE8=You Are so Beautiful to Me
TTITLE9=While The Feeling's Good
TTITLE10=(Hey Won't you play) Another somebody done somebody wrong song (with Dottie West)
TTITLE11=Today I Started Loving You Again
TTITLE12=Don't Fall in Love With a Dreamer (With Kim Carnes)
TTITLE13='til I Can Make it on my Own (With Dottie West)
TTITLE14=All my Life
TTITLE15=I Wish That I Could Hurt That Way Again
TTITLE16=Tennessee Bottle
TTITLE17=But You Know I Love You
TTITLE18=A Little More Like me (The Crucifixion)
EXTD=
EXTT0=
EXTT1=
EXTT2=
EXTT3=
EXTT4=
EXTT5=
EXTT6=
EXTT7=
EXTT8=
EXTT9=
EXTT10=
EXTT11=
EXTT12=
EXTT13=
EXTT14=
EXTT15=
EXTT16=
EXTT17=
EXTT18=
PLAYORDER=
